<svg width="800" height="800" viewBox="0 0 1024 1024" class="icon" xmlns="http://www.w3.org/2000/svg">
  <path d="m359.124 221.114 3.197 108.279-.64.415L624.98 755.956l26.917 43.541 32.417 52.462c10.294 16.687 28.165 25.895 46.451 25.895a54.134 54.134 0 0 0 28.612-8.153c25.64-15.856 33.6-49.424 17.743-75.095l-32.384-52.429-290.247-469.689-95.364-51.374zm517.707 31.969V960.78H162.802V69.39h517.994v183.694h196.035z" fill="#FFB578"/>
  <path d="M876.83 253.083H680.797V69.389z" fill="#FF4893"/>
  <path d="M777.12 794.606c15.856 25.671 7.896 59.239-17.744 75.095a54.133 54.133 0 0 1-28.612 8.153c-18.286 0-36.157-9.208-46.45-25.895l-32.418-52.462 92.839-57.32 32.384 52.43z" fill="#42BC90"/>
  <path d="m744.735 742.177-92.839 57.32-26.917-43.541-263.297-426.148.639-.415 92.167-56.905z" fill="#5FCEFF"/>
  <path d="m454.488 272.488-92.167 56.905-3.197-108.28z" fill="#42BC90"/>
  <path d="M730.764 900.232c-26.902 0-51.387-13.654-65.495-36.528L342.644 341.57a22.378 22.378 0 1 1 38.075-23.523l322.632 522.15a31.985 31.985 0 0 0 27.41 15.281 31.917 31.917 0 0 0 16.819-4.792c15.121-9.354 19.82-29.226 10.498-44.315L435.45 284.253a22.378 22.378 0 0 1 7.273-30.8 22.372 22.372 0 0 1 30.8 7.274l322.63 522.121c22.29 36.074 11.068 83.577-25.009 105.885a76.55 76.55 0 0 1-40.38 11.499z" fill="#4F46A3"/>
  <path d="M651.919 821.879a22.378 22.378 0 0 1-11.78-41.422l92.837-57.32a22.378 22.378 0 0 1 23.517 38.08l-92.838 57.321a22.276 22.276 0 0 1-11.736 3.341zM361.7 352.19a22.378 22.378 0 0 1-12.2-41.157l.64-.416a22.382 22.382 0 0 1 24.36 37.551l-.64.416a22.292 22.292 0 0 1-12.16 3.606zm248.562 495.424a22.366 22.366 0 0 1-19.063-10.623l-98.752-159.877a22.378 22.378 0 0 1 38.075-23.523l98.759 159.883a22.378 22.378 0 0 1-19.019 34.14z" fill="#4F46A3"/>
  <path d="M583.377 804.072a22.382 22.382 0 0 1-11.793-41.416l41.624-25.738a22.382 22.382 0 0 1 23.542 38.069l-41.624 25.738a22.282 22.282 0 0 1-11.749 3.347zm-221.056-452.3a22.378 22.378 0 0 1-22.369-21.717l-3.197-108.28a22.378 22.378 0 0 1 32.983-20.36l95.363 51.374a22.372 22.372 0 0 1 1.142 38.743l-92.167 56.905a22.388 22.388 0 0 1-11.755 3.334zm20.316-92.573.908 30.789 26.208-16.183-27.116-14.606z" fill="#4F46A3"/>
  <path d="M359.146 243.495a22.36 22.36 0 0 1-19.056-10.613l-33.76-54.604a22.378 22.378 0 0 1 38.07-23.535l33.758 54.603a22.378 22.378 0 0 1-19.012 34.15z" fill="#4F46A3"/>
  <path d="M876.83 983.16H162.803a22.378 22.378 0 0 1-22.378-22.379V69.39a22.378 22.378 0 0 1 22.378-22.379h517.994a22.378 22.378 0 0 1 22.379 22.379v161.316H876.83a22.378 22.378 0 0 1 22.378 22.378V960.78a22.378 22.378 0 0 1-22.378 22.379zm-691.65-44.757h669.272V275.46H680.796a22.378 22.378 0 0 1-22.378-22.378V91.767H185.181v846.636z" fill="#4F46A3"/>
  <path d="M876.827 275.461a22.286 22.286 0 0 1-15.297-6.048L665.496 85.719a22.378 22.378 0 1 1 30.604-32.66l196.034 183.694a22.378 22.378 0 0 1-15.307 38.708zM433.612 683.194H269.419a22.378 22.378 0 1 1 0-44.756h164.193a22.378 22.378 0 1 1 0 44.756zm57.544-111.891H269.42a22.378 22.378 0 1 1 0-44.757h221.737a22.378 22.378 0 1 1 0 44.757zm6.394 223.783H269.419a22.378 22.378 0 1 1 0-44.757H497.55a22.378 22.378 0 1 1 0 44.757zm297.312-111.892h-4.348a22.378 22.378 0 1 1 0-44.756h4.348a22.378 22.378 0 1 1 0 44.756zm0-111.891h-81.073a22.378 22.378 0 1 1 0-44.757h81.073a22.378 22.378 0 1 1 0 44.757z" fill="#4F46A3"/>
</svg>
